# Blender v2.78 (sub 0) OBJ File: 'flightPath.blend'
# www.blender.org
o Plane.000
v -0.000000 0.000708 -0.007639
v -0.000000 -0.000708 -0.007639
v -0.000000 0.000708 -0.016612
v -0.000000 -0.000708 -0.016612
v 0.000000 0.000000 0.010674
v 0.000000 -0.001951 0.010482
v 0.000000 -0.003827 0.009912
v 0.000000 -0.005556 0.008988
v -0.000000 -0.007071 0.007745
v -0.000000 -0.008315 0.006229
v -0.000000 -0.009239 0.004500
v -0.000000 -0.009808 0.002625
v -0.000000 -0.010000 0.000674
v -0.000000 -0.009808 -0.001277
v -0.000000 -0.009239 -0.003153
v -0.000000 -0.008315 -0.004882
v -0.000000 -0.007071 -0.006397
v -0.000000 -0.005556 -0.007641
v -0.000000 -0.003827 -0.008565
v -0.000000 -0.001951 -0.009134
v -0.000000 0.000000 -0.009326
v -0.000000 0.001951 -0.009134
v -0.000000 0.003827 -0.008565
v -0.000000 0.005556 -0.007641
v 0.000000 0.007071 -0.006397
v 0.000000 0.008315 -0.004882
v 0.000000 0.009239 -0.003153
v 0.000000 0.009808 -0.001277
v 0.000000 0.010000 0.000674
v 0.000000 0.009808 0.002625
v 0.000000 0.009239 0.004500
v 0.000000 0.008315 0.006229
v 0.000000 0.007071 0.007745
v 0.000000 0.005556 0.008988
v 0.000000 0.003827 0.009912
v 0.000000 0.001951 0.010482
v 0.000000 0.000000 0.008889
v 0.000000 -0.001603 0.008731
v 0.000000 -0.003144 0.008264
v 0.000000 -0.004564 0.007504
v -0.000000 -0.005809 0.006483
v -0.000000 -0.006831 0.005238
v -0.000000 -0.007590 0.003817
v -0.000000 -0.008057 0.002276
v -0.000000 -0.008215 0.000674
v -0.000000 -0.008057 -0.000929
v -0.000000 -0.007590 -0.002470
v -0.000000 -0.006831 -0.003890
v -0.000000 -0.005809 -0.005135
v -0.000000 -0.004564 -0.006157
v -0.000000 -0.003144 -0.006916
v -0.000000 -0.001603 -0.007384
v -0.000000 0.000000 -0.007542
v -0.000000 0.001603 -0.007384
v -0.000000 0.003144 -0.006916
v -0.000000 0.004564 -0.006157
v 0.000000 0.005809 -0.005135
v 0.000000 0.006831 -0.003890
v 0.000000 0.007590 -0.002470
v 0.000000 0.008057 -0.000929
v 0.000000 0.008215 0.000674
v 0.000000 0.008057 0.002276
v 0.000000 0.007590 0.003818
v 0.000000 0.006831 0.005238
v 0.000000 0.005809 0.006483
v 0.000000 0.004564 0.007504
v 0.000000 0.003144 0.008264
v 0.000000 0.001603 0.008731
v -0.000000 -0.008513 -0.000034
v -0.000000 -0.008513 0.001381
v -0.000000 -0.017487 -0.000034
v -0.000000 -0.017487 0.001381
v 0.000000 0.017487 -0.000034
v 0.000000 0.017487 0.001381
v 0.000000 0.008513 -0.000034
v 0.000000 0.008513 0.001381
vt 0.7047 0.0000
vt 0.6581 0.4487
vt 0.6581 0.0000
vt 0.4250 0.0376
vt 0.4849 0.0836
vt 0.4571 0.1579
vt 0.4079 0.1201
vt 0.3615 0.0094
vt 0.3557 0.0969
vt 0.2967 0.0000
vt 0.3024 0.0892
vt 0.2502 0.0973
vt 0.2331 0.0098
vt 0.1732 0.0385
vt 0.2010 0.1209
vt 0.1193 0.0849
vt 0.1567 0.1590
vt 0.1191 0.2103
vt 0.0735 0.1473
vt 0.0895 0.2726
vt 0.0375 0.2232
vt 0.0691 0.3437
vt 0.0126 0.3098
vt 0.0587 0.4208
vt 0.0000 0.4037
vt 0.0587 0.5010
vt 0.0000 0.5012
vt 0.0691 0.5811
vt 0.0126 0.5987
vt 0.0895 0.6581
vt 0.0375 0.6925
vt 0.0735 0.7788
vt 0.1191 0.7290
vt 0.1193 0.8544
vt 0.1567 0.7912
vt 0.2010 0.8421
vt 0.1732 0.9164
vt 0.2331 0.9624
vt 0.2502 0.8799
vt 0.3024 0.9031
vt 0.2967 0.9906
vt 0.3557 0.9108
vt 0.3615 1.0000
vt 0.4250 0.9902
vt 0.4079 0.9027
vt 0.4849 0.9615
vt 0.4571 0.8791
vt 0.5014 0.8410
vt 0.5388 0.9151
vt 0.5847 0.8527
vt 0.5390 0.7897
vt 0.6207 0.7768
vt 0.5686 0.7274
vt 0.6455 0.6902
vt 0.5890 0.6563
vt 0.6581 0.5963
vt 0.5994 0.5792
vt 0.6581 0.4988
vt 0.5994 0.4990
vt 0.6455 0.4013
vt 0.5890 0.4189
vt 0.5686 0.3419
vt 0.6207 0.3075
vt 0.5847 0.2212
vt 0.5390 0.2710
vt 0.5014 0.2088
vt 0.5388 0.1456
vt 1.0000 0.0000
vt 0.7047 0.0708
vt 0.7047 0.0000
vt 0.7047 0.0708
vt 1.0000 0.1415
vt 0.7047 0.1415
vt 0.7047 0.4487
vt 1.0000 0.0708
vt 1.0000 0.0708
vn 1.0000 -0.0000 -0.0000
vn -1.0000 0.0000 0.0000
s off
f 2/1/1 3/2/1 1/3/1
f 19/4/2 18/5/2 50/6/2
f 50/6/2 51/7/2 19/4/2
f 19/4/2 51/7/2 20/8/2
f 51/7/2 52/9/2 20/8/2
f 20/8/2 52/9/2 21/10/2
f 52/9/2 53/11/2 21/10/2
f 53/11/2 54/12/2 21/10/2
f 21/10/2 54/12/2 22/13/2
f 22/13/2 54/12/2 23/14/2
f 54/12/2 55/15/2 23/14/2
f 23/14/2 55/15/2 24/16/2
f 55/15/2 56/17/2 24/16/2
f 56/17/2 57/18/2 24/16/2
f 24/16/2 57/18/2 25/19/2
f 57/18/2 58/20/2 25/19/2
f 25/19/2 58/20/2 26/21/2
f 58/20/2 59/22/2 26/21/2
f 26/21/2 59/22/2 27/23/2
f 59/22/2 60/24/2 27/23/2
f 27/23/2 60/24/2 28/25/2
f 60/24/2 61/26/2 28/25/2
f 28/25/2 61/26/2 29/27/2
f 61/26/2 62/28/2 29/27/2
f 29/27/2 62/28/2 30/29/2
f 62/28/2 63/30/2 30/29/2
f 30/29/2 63/30/2 31/31/2
f 31/31/2 63/30/2 32/32/2
f 63/30/2 64/33/2 32/32/2
f 32/32/2 64/33/2 33/34/2
f 64/33/2 65/35/2 33/34/2
f 65/35/2 66/36/2 33/34/2
f 33/34/2 66/36/2 34/37/2
f 34/37/2 66/36/2 35/38/2
f 66/36/2 67/39/2 35/38/2
f 67/39/2 68/40/2 35/38/2
f 35/38/2 68/40/2 36/41/2
f 68/40/2 37/42/2 36/41/2
f 36/41/2 37/42/2 5/43/2
f 5/43/2 37/42/2 6/44/2
f 37/42/2 38/45/2 6/44/2
f 6/44/2 38/45/2 7/46/2
f 38/45/2 39/47/2 7/46/2
f 39/47/2 40/48/2 7/46/2
f 7/46/2 40/48/2 8/49/2
f 8/49/2 40/48/2 9/50/2
f 40/48/2 41/51/2 9/50/2
f 9/50/2 41/51/2 10/52/2
f 41/51/2 42/53/2 10/52/2
f 10/52/2 42/53/2 11/54/2
f 42/53/2 43/55/2 11/54/2
f 11/54/2 43/55/2 12/56/2
f 43/55/2 44/57/2 12/56/2
f 12/56/2 44/57/2 13/58/2
f 44/57/2 45/59/2 13/58/2
f 13/58/2 45/59/2 14/60/2
f 45/59/2 46/61/2 14/60/2
f 46/61/2 47/62/2 14/60/2
f 14/60/2 47/62/2 15/63/2
f 15/63/2 47/62/2 16/64/2
f 47/62/2 48/65/2 16/64/2
f 48/65/2 49/66/2 16/64/2
f 16/64/2 49/66/2 17/67/2
f 49/66/2 50/6/2 17/67/2
f 17/67/2 50/6/2 18/5/2
f 70/68/1 71/69/1 69/70/1
f 74/71/1 75/72/1 73/73/1
f 2/1/1 4/74/1 3/2/1
f 70/68/1 72/75/1 71/69/1
f 74/71/1 76/76/1 75/72/1
